<?xml version="1.0" encoding="UTF-8" standalone="no"?>
<!DOCTYPE svg PUBLIC "-//W3C//DTD SVG 1.1//EN"
 "http://www.w3.org/Graphics/SVG/1.1/DTD/svg11.dtd">
<!-- Generated by graphviz version 10.0.1 (20240210.2158)
 -->
<!-- Title: G Pages: 1 -->
<svg width="685pt" height="398pt"
 viewBox="0.00 0.00 684.50 398.00" xmlns="http://www.w3.org/2000/svg" xmlns:xlink="http://www.w3.org/1999/xlink">
<g id="graph0" class="graph" transform="scale(1 1) rotate(0) translate(4 394)">
<title>G</title>
<polygon fill="white" stroke="none" points="-4,4 -4,-394 680.5,-394 680.5,4 -4,4"/>
<!-- f_3 : f -->
<g id="node1" class="node">
<title>f_3 : f</title>
<polygon fill="none" stroke="black" points="221,-390 167,-390 167,-354 221,-354 221,-390"/>
<text text-anchor="middle" x="194" y="-366.95" font-family="Times,serif" font-size="14.00">f_3 : f</text>
</g>
<!-- l_3 : f -->
<g id="node5" class="node">
<title>l_3 : f</title>
<polygon fill="none" stroke="black" points="54,-301.5 0,-301.5 0,-265.5 54,-265.5 54,-301.5"/>
<text text-anchor="middle" x="27" y="-278.45" font-family="Times,serif" font-size="14.00">l_3 : f</text>
</g>
<!-- f_3 : f&#45;&gt;l_3 : f -->
<g id="edge1" class="edge">
<title>f_3 : f&#45;&gt;l_3 : f</title>
<path fill="none" stroke="#001267" d="M166.68,-369.45C138.03,-366.61 92.85,-358.6 61.25,-336 52.49,-329.74 45.34,-320.48 39.88,-311.53"/>
<polygon fill="#001267" stroke="#001267" points="43.09,-310.11 35.18,-303.07 36.97,-313.51 43.09,-310.11"/>
<text text-anchor="middle" x="66.88" y="-322.7" font-family="Times,serif" font-size="14.00">D</text>
</g>
<!-- p_1 : this -->
<g id="node8" class="node">
<title>p_1 : this</title>
<polygon fill="none" stroke="black" points="629.5,-301.5 562.5,-301.5 562.5,-265.5 629.5,-265.5 629.5,-301.5"/>
<text text-anchor="middle" x="596" y="-278.45" font-family="Times,serif" font-size="14.00">p_1 : this</text>
</g>
<!-- f_3 : f&#45;&gt;p_1 : this -->
<g id="edge2" class="edge">
<title>f_3 : f&#45;&gt;p_1 : this</title>
<path fill="none" stroke="#001267" d="M221.44,-368.47C290.63,-362 468.52,-344.74 494,-336 507.39,-331.41 508.77,-326.18 521.25,-319.5 531,-314.28 541.67,-309.03 551.81,-304.24"/>
<polygon fill="#001267" stroke="#001267" points="553.18,-307.46 560.76,-300.07 550.22,-301.12 553.18,-307.46"/>
<text text-anchor="middle" x="549.88" y="-322.7" font-family="Times,serif" font-size="14.00">param this</text>
</g>
<!-- p_2 : o -->
<g id="node9" class="node">
<title>p_2 : o</title>
<polygon fill="none" stroke="black" points="151.12,-301.5 96.88,-301.5 96.88,-265.5 151.12,-265.5 151.12,-301.5"/>
<text text-anchor="middle" x="124" y="-278.45" font-family="Times,serif" font-size="14.00">p_2 : o</text>
</g>
<!-- f_3 : f&#45;&gt;p_2 : o -->
<g id="edge3" class="edge">
<title>f_3 : f&#45;&gt;p_2 : o</title>
<path fill="none" stroke="#001267" d="M166.53,-371.36C139.12,-370.06 98.26,-363.27 78,-336 70.39,-325.75 77.07,-315.11 87.48,-306.18"/>
<polygon fill="#001267" stroke="#001267" points="89.34,-309.16 95.21,-300.34 85.12,-303.58 89.34,-309.16"/>
<text text-anchor="middle" x="100.5" y="-322.7" font-family="Times,serif" font-size="14.00">param 0</text>
</g>
<!-- p_3 : x -->
<g id="node10" class="node">
<title>p_3 : x</title>
<polygon fill="none" stroke="black" points="223.12,-301.5 168.88,-301.5 168.88,-265.5 223.12,-265.5 223.12,-301.5"/>
<text text-anchor="middle" x="196" y="-278.45" font-family="Times,serif" font-size="14.00">p_3 : x</text>
</g>
<!-- f_3 : f&#45;&gt;p_3 : x -->
<g id="edge4" class="edge">
<title>f_3 : f&#45;&gt;p_3 : x</title>
<path fill="none" stroke="#001267" d="M166.67,-362.36C144.04,-353.63 117.36,-338.71 129,-319.5 129.98,-317.88 143.69,-310.61 158.45,-303.12"/>
<polygon fill="#001267" stroke="#001267" points="159.98,-306.26 167.34,-298.64 156.83,-300.01 159.98,-306.26"/>
<text text-anchor="middle" x="151.5" y="-322.7" font-family="Times,serif" font-size="14.00">param 1</text>
</g>
<!-- p_4 : y -->
<g id="node11" class="node">
<title>p_4 : y</title>
<polygon fill="none" stroke="black" points="295.12,-301.5 240.88,-301.5 240.88,-265.5 295.12,-265.5 295.12,-301.5"/>
<text text-anchor="middle" x="268" y="-278.45" font-family="Times,serif" font-size="14.00">p_4 : y</text>
</g>
<!-- f_3 : f&#45;&gt;p_4 : y -->
<g id="edge5" class="edge">
<title>f_3 : f&#45;&gt;p_4 : y</title>
<path fill="none" stroke="#001267" d="M219.17,-353.59C225.74,-348.38 232.51,-342.35 238,-336 244.28,-328.74 249.95,-319.97 254.63,-311.75"/>
<polygon fill="#001267" stroke="#001267" points="257.62,-313.57 259.28,-303.11 251.46,-310.26 257.62,-313.57"/>
<text text-anchor="middle" x="271.5" y="-322.7" font-family="Times,serif" font-size="14.00">param 2</text>
</g>
<!-- p_5 : z -->
<g id="node12" class="node">
<title>p_5 : z</title>
<polygon fill="none" stroke="black" points="463,-301.5 409,-301.5 409,-265.5 463,-265.5 463,-301.5"/>
<text text-anchor="middle" x="436" y="-278.45" font-family="Times,serif" font-size="14.00">p_5 : z</text>
</g>
<!-- f_3 : f&#45;&gt;p_5 : z -->
<g id="edge6" class="edge">
<title>f_3 : f&#45;&gt;p_5 : z</title>
<path fill="none" stroke="#001267" d="M221.31,-369.89C257.14,-367.5 321.18,-359.92 370,-336 380.04,-331.08 380.29,-326.51 389,-319.5 393.44,-315.92 398.2,-312.24 402.91,-308.66"/>
<polygon fill="#001267" stroke="#001267" points="404.72,-311.67 410.61,-302.87 400.52,-306.07 404.72,-311.67"/>
<text text-anchor="middle" x="411.5" y="-322.7" font-family="Times,serif" font-size="14.00">param 3</text>
</g>
<!-- l_0 : z_dash -->
<g id="node2" class="node">
<title>l_0 : z_dash</title>
<polygon fill="none" stroke="black" points="382,-36 300,-36 300,0 382,0 382,-36"/>
<text text-anchor="middle" x="341" y="-12.95" font-family="Times,serif" font-size="14.00">l_0 : z_dash</text>
</g>
<!-- l_1 : o.* -->
<g id="node3" class="node">
<title>l_1 : o.*</title>
<polygon fill="none" stroke="black" points="226.88,-213 165.12,-213 165.12,-177 226.88,-177 226.88,-213"/>
<text text-anchor="middle" x="196" y="-189.95" font-family="Times,serif" font-size="14.00">l_1 : o.*</text>
</g>
<!-- l_2 : v1 -->
<g id="node4" class="node">
<title>l_2 : v1</title>
<polygon fill="none" stroke="black" points="256,-124.5 198,-124.5 198,-88.5 256,-88.5 256,-124.5"/>
<text text-anchor="middle" x="227" y="-101.45" font-family="Times,serif" font-size="14.00">l_2 : v1</text>
</g>
<!-- l_1 : o.*&#45;&gt;l_2 : v1 -->
<g id="edge7" class="edge">
<title>l_1 : o.*&#45;&gt;l_2 : v1</title>
<path fill="none" stroke="#001267" d="M202.12,-176.91C206.34,-165.14 212.05,-149.23 216.93,-135.61"/>
<polygon fill="#001267" stroke="#001267" points="220.19,-136.87 220.27,-126.27 213.6,-134.51 220.19,-136.87"/>
<text text-anchor="middle" x="226.75" y="-145.7" font-family="Times,serif" font-size="14.00">V(*)</text>
</g>
<!-- l_2 : v1&#45;&gt;l_0 : z_dash -->
<g id="edge8" class="edge">
<title>l_2 : v1&#45;&gt;l_0 : z_dash</title>
<path fill="none" stroke="#001267" d="M249.8,-88.2C266.8,-75.3 290.26,-57.5 309.13,-43.18"/>
<polygon fill="#001267" stroke="#001267" points="311.19,-46.01 317.04,-37.18 306.96,-40.44 311.19,-46.01"/>
<text text-anchor="middle" x="305.62" y="-57.2" font-family="Times,serif" font-size="14.00">P(*)</text>
</g>
<!-- l_literal : literal value -->
<g id="node6" class="node">
<title>l_literal : literal value</title>
<polygon fill="none" stroke="black" points="407.88,-124.5 274.12,-124.5 274.12,-88.5 407.88,-88.5 407.88,-124.5"/>
<text text-anchor="middle" x="341" y="-101.45" font-family="Times,serif" font-size="14.00">l_literal : literal value</text>
</g>
<!-- l_literal : literal value&#45;&gt;l_0 : z_dash -->
<g id="edge9" class="edge">
<title>l_literal : literal value&#45;&gt;l_0 : z_dash</title>
<path fill="none" stroke="#001267" d="M341,-88.41C341,-76.76 341,-61.05 341,-47.52"/>
<polygon fill="#001267" stroke="#001267" points="344.5,-47.86 341,-37.86 337.5,-47.86 344.5,-47.86"/>
<text text-anchor="middle" x="345.88" y="-57.2" font-family="Times,serif" font-size="14.00">D</text>
</g>
<!-- l_tsource : taint source -->
<g id="node7" class="node">
<title>l_tsource : taint source</title>
<polygon fill="none" stroke="black" points="529.88,-390 390.12,-390 390.12,-354 529.88,-354 529.88,-390"/>
<text text-anchor="middle" x="460" y="-366.95" font-family="Times,serif" font-size="14.00">l_tsource : taint source</text>
</g>
<!-- l_tsource : taint source&#45;&gt;p_1 : this -->
<g id="edge10" class="edge">
<title>l_tsource : taint source&#45;&gt;p_1 : this</title>
<path fill="none" stroke="#001267" d="M530.17,-365.72C572.16,-360.93 619.86,-352.07 633,-336 639.74,-327.76 636.11,-318.39 628.97,-309.92"/>
<polygon fill="#001267" stroke="#001267" points="631.52,-307.53 621.99,-302.9 626.56,-312.46 631.52,-307.53"/>
<text text-anchor="middle" x="656.25" y="-322.7" font-family="Times,serif" font-size="14.00">TAINT</text>
</g>
<!-- l_tsource : taint source&#45;&gt;p_2 : o -->
<g id="edge11" class="edge">
<title>l_tsource : taint source&#45;&gt;p_2 : o</title>
<path fill="none" stroke="#001267" d="M389.77,-366.27C322.91,-360.97 227.59,-351.08 193.5,-336 183.12,-331.41 182.99,-326.43 174,-319.5 169.17,-315.78 163.99,-311.97 158.86,-308.29"/>
<polygon fill="#001267" stroke="#001267" points="161.19,-305.65 151,-302.74 157.15,-311.36 161.19,-305.65"/>
<text text-anchor="middle" x="213.25" y="-322.7" font-family="Times,serif" font-size="14.00">TAINT</text>
</g>
<!-- l_tsource : taint source&#45;&gt;p_3 : x -->
<g id="edge12" class="edge">
<title>l_tsource : taint source&#45;&gt;p_3 : x</title>
<path fill="none" stroke="#001267" d="M389.63,-356.72C368.59,-351.38 345.74,-344.5 325.5,-336 312.36,-330.48 311.11,-325.09 298,-319.5 272.88,-308.78 262.64,-311.29 233.84,-301.74"/>
<polygon fill="#001267" stroke="#001267" points="235.33,-298.55 224.73,-298.51 232.98,-305.15 235.33,-298.55"/>
<text text-anchor="middle" x="345.25" y="-322.7" font-family="Times,serif" font-size="14.00">TAINT</text>
</g>
<!-- l_tsource : taint source&#45;&gt;p_4 : y -->
<g id="edge13" class="edge">
<title>l_tsource : taint source&#45;&gt;p_4 : y</title>
<path fill="none" stroke="#001267" d="M456.91,-353.67C453.97,-342.29 448.39,-327.99 438,-319.5 418.28,-303.39 350.51,-293.3 306.72,-288.3"/>
<polygon fill="#001267" stroke="#001267" points="307.16,-284.82 296.84,-287.21 306.4,-291.78 307.16,-284.82"/>
<text text-anchor="middle" x="469.25" y="-322.7" font-family="Times,serif" font-size="14.00">TAINT</text>
</g>
<!-- l_tsource : taint source&#45;&gt;p_5 : z -->
<g id="edge14" class="edge">
<title>l_tsource : taint source&#45;&gt;p_5 : z</title>
<path fill="none" stroke="#001267" d="M530.28,-363.65C567.63,-356.81 602.23,-343.84 583,-319.5 569.71,-302.67 513.45,-293.06 474.52,-288.32"/>
<polygon fill="#001267" stroke="#001267" points="475.14,-284.87 464.81,-287.2 474.34,-291.82 475.14,-284.87"/>
<text text-anchor="middle" x="608.25" y="-322.7" font-family="Times,serif" font-size="14.00">TAINT</text>
</g>
<!-- p_2 : o&#45;&gt;l_1 : o.* -->
<g id="edge15" class="edge">
<title>p_2 : o&#45;&gt;l_1 : o.*</title>
<path fill="none" stroke="#001267" d="M138.22,-265.41C148.51,-253.05 162.6,-236.13 174.29,-222.08"/>
<polygon fill="#001267" stroke="#001267" points="176.88,-224.44 180.59,-214.51 171.5,-219.96 176.88,-224.44"/>
<text text-anchor="middle" x="178.62" y="-234.2" font-family="Times,serif" font-size="14.00">P(*)</text>
</g>
<!-- p_3 : x&#45;&gt;l_1 : o.* -->
<g id="edge16" class="edge">
<title>p_3 : x&#45;&gt;l_1 : o.*</title>
<path fill="none" stroke="#001267" d="M196,-265.41C196,-253.76 196,-238.05 196,-224.52"/>
<polygon fill="#001267" stroke="#001267" points="199.5,-224.86 196,-214.86 192.5,-224.86 199.5,-224.86"/>
<text text-anchor="middle" x="200.88" y="-234.2" font-family="Times,serif" font-size="14.00">D</text>
</g>
<!-- p_4 : y&#45;&gt;l_2 : v1 -->
<g id="edge17" class="edge">
<title>p_4 : y&#45;&gt;l_2 : v1</title>
<path fill="none" stroke="#001267" d="M266.63,-265.32C264.14,-238.54 257.81,-185.46 244,-142.5 243.23,-140.1 242.32,-137.65 241.33,-135.22"/>
<polygon fill="#001267" stroke="#001267" points="244.59,-133.94 237.28,-126.28 238.22,-136.83 244.59,-133.94"/>
<text text-anchor="middle" x="263.88" y="-189.95" font-family="Times,serif" font-size="14.00">D</text>
</g>
<!-- p_5 : z&#45;&gt;l_0 : z_dash -->
<g id="edge18" class="edge">
<title>p_5 : z&#45;&gt;l_0 : z_dash</title>
<path fill="none" stroke="#001267" d="M438.28,-265.03C442.07,-229.61 446.6,-147.67 417,-88.5 408.06,-70.62 392.43,-55.11 377.66,-43.3"/>
<polygon fill="#001267" stroke="#001267" points="379.93,-40.62 369.85,-37.35 375.69,-46.19 379.93,-40.62"/>
<text text-anchor="middle" x="441.88" y="-145.7" font-family="Times,serif" font-size="14.00">D</text>
</g>
</g>
</svg>
